<?xml version="1.0" standalone="no"?>
<!DOCTYPE svg PUBLIC "-//W3C//DTD SVG 20010904//EN"
 "http://www.w3.org/TR/2001/REC-SVG-20010904/DTD/svg10.dtd">
<svg version="1.0" xmlns="http://www.w3.org/2000/svg"
 width="1280.000000pt" height="1280.000000pt" viewBox="0 0 1280.000000 1280.000000"
 preserveAspectRatio="xMidYMid meet">
<metadata>
Created by potrace 1.14, written by Peter Selinger 2001-2017
</metadata>
<g transform="translate(0.000000,1280.000000) scale(0.100000,-0.100000)"
fill="#000000" stroke="none">
<path d="M1595 12090 c-380 -4 -487 -8 -515 -19 -44 -18 -97 -63 -130 -110
-14 -20 -28 -37 -32 -39 -4 -2 -4 -10 -1 -19 4 -9 2 -14 -3 -11 -5 4 -10 -10
-11 -30 -6 -116 -4 -10513 3 -10523 5 -8 3 -10 -7 -4 -11 6 -12 5 -1 -6 6 -7
12 -21 12 -31 0 -10 7 -30 16 -43 9 -13 12 -30 8 -36 -5 -8 -3 -9 6 -4 10 6
12 4 7 -9 -4 -10 -3 -15 3 -11 5 3 21 -6 36 -20 14 -14 36 -33 50 -41 13 -9
22 -20 19 -24 -3 -5 4 -6 15 -3 11 3 20 1 20 -3 0 -5 16 -10 37 -11 20 -1 40
-8 44 -15 5 -8 9 -9 9 -2 0 7 27 12 71 13 58 1 74 -2 85 -16 13 -17 14 -17 8
0 -7 20 6 22 25 5 11 -10 13 -10 7 0 -12 21 104 16 120 -5 13 -17 14 -17 8 0
-7 20 6 22 25 4 11 -9 13 -9 7 1 -5 9 6 12 43 12 30 0 51 -5 54 -12 4 -10 6
-10 6 0 1 7 15 12 36 12 21 0 35 -5 35 -12 0 -10 2 -10 8 -1 11 17 85 14 78
-3 -3 -7 -1 -16 5 -19 5 -4 9 -3 8 2 -4 26 4 33 37 33 23 0 42 -7 50 -17 12
-15 13 -16 8 -2 -5 15 4 17 66 17 56 0 70 -3 66 -14 -3 -7 -1 -16 5 -19 5 -4
9 -3 8 2 -4 24 4 33 30 33 16 0 32 -6 34 -12 4 -10 6 -10 6 0 1 14 71 17 71 2
0 -5 5 -10 11 -10 5 0 7 5 4 10 -12 19 77 11 91 -7 13 -17 14 -17 8 0 -7 20 6
22 25 5 11 -10 13 -10 7 0 -12 21 104 16 120 -5 13 -17 14 -17 8 0 -7 20 6 22
25 5 11 -11 13 -10 7 0 -12 21 184 15 201 -7 12 -15 13 -15 7 2 -3 9 -1 17 5
17 6 0 11 -6 11 -12 0 -10 2 -10 8 0 12 18 115 14 108 -4 -3 -7 -1 -16 5 -19
5 -4 9 -3 8 2 -5 30 3 33 78 32 59 -1 81 -5 90 -18 12 -15 13 -14 7 2 -3 9 -1
17 5 17 6 0 11 -6 11 -12 0 -10 2 -10 8 0 12 18 115 14 108 -4 -3 -7 -1 -16 5
-19 5 -4 9 -3 8 2 -5 30 3 33 78 32 59 -1 81 -5 90 -18 12 -15 13 -14 7 2 -3
9 -1 17 5 17 6 0 11 -6 11 -12 0 -10 2 -10 8 0 12 18 115 14 108 -4 -3 -7 -1
-16 5 -19 5 -4 9 -3 8 2 -5 30 3 33 78 32 59 -1 81 -5 90 -18 12 -15 13 -14 7
2 -3 9 -1 17 5 17 6 0 11 -6 11 -12 0 -10 2 -10 8 0 12 18 115 14 108 -4 -3
-7 -1 -16 5 -19 5 -4 9 -3 8 2 -4 24 4 33 30 33 16 0 32 -6 34 -12 4 -10 6
-10 6 0 1 7 15 12 36 12 21 0 35 -5 35 -12 0 -10 2 -10 8 -1 11 17 85 14 78
-3 -3 -7 -1 -16 5 -19 5 -4 9 -3 8 2 -4 26 4 33 37 33 23 0 42 -7 50 -17 12
-15 13 -16 8 -2 -5 15 4 17 66 17 56 0 70 -3 66 -14 -3 -7 -1 -16 5 -19 5 -4
9 -3 8 2 -4 24 4 33 30 33 16 0 32 -6 34 -12 4 -10 6 -10 6 0 1 7 15 12 35 12
19 0 37 -6 39 -12 4 -10 6 -10 6 0 1 6 8 12 17 12 14 0 15 -2 3 -17 -13 -17
-13 -17 7 -1 26 23 53 23 70 1 13 -17 14 -17 8 0 -7 20 6 22 25 4 11 -9 13 -9
7 1 -12 21 104 16 120 -5 13 -17 14 -17 8 0 -7 20 6 22 25 5 11 -10 13 -10 7
0 -5 9 6 12 43 12 30 0 51 -5 54 -12 4 -10 6 -10 6 0 1 7 15 12 36 12 21 0 35
-5 35 -12 0 -10 2 -10 8 -1 11 17 85 14 78 -3 -3 -7 -1 -16 5 -19 5 -4 9 -3 8
2 -4 26 4 33 37 33 23 0 42 -7 50 -17 12 -15 13 -16 8 -2 -5 15 4 17 66 17 56
0 70 -3 66 -14 -3 -7 -1 -16 5 -19 5 -4 9 -3 8 2 -4 24 4 33 30 33 16 0 32 -6
34 -12 4 -10 6 -10 6 0 1 14 71 17 71 2 0 -5 5 -10 11 -10 5 0 7 5 4 10 -12
19 77 11 91 -7 13 -17 14 -17 8 0 -7 20 6 22 25 5 11 -10 13 -10 7 0 -12 21
104 16 120 -5 13 -17 14 -17 8 0 -7 20 6 22 25 5 11 -10 13 -10 7 0 -5 9 6 12
43 12 30 0 51 -5 54 -12 4 -10 6 -10 6 0 1 7 15 12 36 12 21 0 35 -5 35 -12 0
-10 2 -10 8 -1 11 17 85 14 78 -3 -3 -7 -1 -16 5 -19 5 -4 9 -3 8 2 -4 26 4
33 37 33 23 0 42 -7 50 -17 12 -15 13 -16 8 -2 -5 15 4 17 66 17 56 0 70 -3
66 -14 -3 -7 -1 -16 5 -19 5 -4 9 -3 8 2 -4 24 4 33 30 33 16 0 32 -6 34 -12
4 -10 6 -10 6 0 1 16 68 16 74 0 4 -10 6 -10 6 0 1 6 8 12 17 12 14 0 15 -2 3
-17 -13 -17 -13 -17 7 -1 27 24 133 23 151 -1 12 -15 13 -15 7 2 -3 9 -1 17 5
17 6 0 11 -6 11 -12 0 -10 2 -10 8 0 12 18 115 14 108 -4 -3 -7 -1 -16 5 -19
5 -4 9 -3 8 2 -5 30 3 33 78 32 59 -1 81 -5 90 -18 12 -15 13 -14 7 2 -3 9 -1
17 5 17 6 0 11 -6 11 -12 0 -10 2 -10 8 0 12 18 115 14 108 -4 -3 -7 -1 -16 5
-19 5 -4 9 -3 8 2 -5 30 3 33 78 32 59 -1 81 -5 90 -18 12 -15 13 -14 7 2 -3
9 -1 17 5 17 6 0 11 -6 11 -12 0 -10 2 -10 8 0 12 18 115 14 108 -4 -3 -7 -1
-16 5 -19 5 -4 9 -3 8 2 -5 30 3 33 78 32 59 -1 81 -5 90 -18 12 -15 13 -14 7
1 -3 10 -1 18 5 18 6 0 11 -6 11 -12 0 -10 2 -10 8 0 12 18 115 14 108 -4 -3
-7 -1 -16 5 -19 5 -4 9 -3 8 2 -4 26 4 33 37 33 23 0 42 -7 50 -18 13 -16 14
-16 8 1 -7 20 6 22 25 4 11 -9 13 -9 7 1 -12 21 104 16 120 -5 13 -17 14 -17
8 0 -7 20 6 22 25 5 11 -10 13 -10 7 0 -5 9 6 12 43 12 30 0 51 -5 54 -12 4
-10 6 -10 6 0 1 7 15 12 36 12 21 0 35 -5 35 -12 0 -10 2 -10 8 -1 11 17 85
14 78 -3 -3 -7 -1 -16 5 -19 5 -4 9 -3 8 2 -4 26 4 33 37 33 23 0 42 -7 50
-18 12 -14 13 -15 8 -1 -5 15 4 17 66 17 56 0 70 -3 66 -14 -3 -7 -1 -16 5
-19 5 -4 9 -3 8 2 -4 24 4 33 30 33 16 0 32 -6 34 -12 4 -10 6 -10 6 0 1 14
71 17 71 2 0 -5 5 -10 11 -10 5 0 7 5 4 10 -12 19 77 11 91 -7 13 -17 14 -17
8 0 -7 20 6 22 25 5 11 -10 13 -10 7 0 -12 21 104 16 120 -5 13 -17 14 -17 8
0 -7 20 6 22 25 5 11 -10 13 -10 7 0 -12 21 104 16 120 -5 13 -17 14 -17 8 0
-7 20 6 22 25 5 11 -10 13 -10 7 0 -12 21 104 16 120 -6 13 -16 14 -16 8 1 -7
20 6 22 25 5 11 -10 13 -10 7 0 -5 9 6 12 43 12 30 0 51 -5 54 -12 4 -10 6
-10 6 0 1 7 15 12 36 12 21 0 35 -5 35 -12 0 -10 2 -10 8 -1 11 17 85 14 78
-3 -3 -7 -1 -16 5 -19 5 -4 9 -3 8 2 -4 26 4 33 37 33 23 0 42 -7 50 -17 12
-15 13 -16 8 -2 -5 15 4 17 66 17 56 0 70 -3 66 -14 -3 -7 -1 -16 5 -19 5 -4
9 -3 8 2 -4 24 4 33 30 33 16 0 32 -6 34 -12 4 -10 6 -10 6 0 1 14 71 17 71 2
0 -5 5 -10 11 -10 5 0 7 5 4 10 -12 19 77 11 91 -7 13 -17 14 -17 8 0 -7 20 6
22 25 5 11 -10 13 -10 7 0 -12 21 104 16 120 -5 13 -17 14 -17 8 0 -7 20 6 22
25 5 11 -10 13 -10 7 0 -12 21 104 16 120 -5 13 -17 14 -17 8 0 -7 20 6 22 25
5 11 -10 13 -10 7 0 -12 21 104 16 120 -5 13 -17 14 -17 8 0 -7 20 6 22 25 5
11 -10 13 -10 7 0 -5 9 6 12 43 12 30 0 51 -5 54 -12 4 -10 6 -10 6 0 1 7 15
12 36 12 21 0 35 -5 35 -12 0 -10 2 -10 8 -1 11 17 85 14 78 -3 -3 -7 -1 -16
5 -19 5 -4 9 -3 8 2 -4 26 4 33 37 33 23 0 42 -7 50 -17 12 -15 13 -16 8 -2
-5 15 4 17 66 17 56 0 70 -3 66 -14 -3 -7 -1 -16 5 -19 5 -4 9 -3 8 2 -4 24 4
33 30 33 16 0 32 -6 34 -12 4 -10 6 -10 6 0 1 14 71 17 71 2 0 -5 5 -10 11
-10 5 0 7 5 4 10 -12 19 77 11 91 -7 13 -17 14 -17 8 0 -7 20 6 22 25 5 11
-10 13 -10 7 0 -12 21 104 16 120 -5 13 -17 14 -17 8 0 -7 20 6 22 25 5 11
-10 13 -10 7 0 -12 21 104 16 120 -5 13 -17 14 -17 8 0 -5 13 0 17 21 17 25 0
26 -2 14 -17 -13 -17 -12 -17 6 -2 11 8 40 21 64 28 48 14 91 38 104 58 4 7
15 13 23 13 9 0 12 5 8 12 -5 8 -2 9 10 5 11 -4 15 -3 11 4 -4 6 0 18 8 27 19
22 47 108 39 118 -4 4 -2 5 3 2 7 -4 9 1725 8 5180 0 2853 -2 5219 -4 5258 -1
39 2 77 6 84 5 8 4 11 -2 7 -6 -4 -13 7 -17 24 -3 17 -15 42 -26 56 -11 14
-17 29 -14 34 3 5 1 8 -4 7 -5 -2 -20 8 -33 22 -20 22 -119 80 -134 80 -3 0
-6 0 -7 0 -47 4 -9745 3 -10073 0z"/>
<path d="M11875 11960 c-3 -5 -1 -10 4 -10 6 0 11 5 11 10 0 6 -2 10 -4 10 -3
0 -8 -4 -11 -10z"/>
<path d="M869 11123 c-13 -16 -12 -17 4 -4 16 13 21 21 13 21 -2 0 -10 -8 -17
-17z"/>
<path d="M11919 10953 c-13 -16 -12 -17 4 -4 16 13 21 21 13 21 -2 0 -10 -8
-17 -17z"/>
<path d="M846 10762 c-3 -5 1 -9 9 -9 8 0 12 4 9 9 -3 4 -7 8 -9 8 -2 0 -6 -4
-9 -8z"/>
<path d="M11936 10678 c3 -5 10 -6 15 -3 13 9 11 12 -6 12 -8 0 -12 -4 -9 -9z"/>
<path d="M846 10442 c-3 -5 1 -9 9 -9 8 0 12 4 9 9 -3 4 -7 8 -9 8 -2 0 -6 -4
-9 -8z"/>
<path d="M11936 10358 c3 -5 10 -6 15 -3 13 9 11 12 -6 12 -8 0 -12 -4 -9 -9z"/>
<path d="M11936 10038 c3 -5 10 -6 15 -3 13 9 11 12 -6 12 -8 0 -12 -4 -9 -9z"/>
<path d="M11936 9718 c3 -5 10 -6 15 -3 13 9 11 12 -6 12 -8 0 -12 -4 -9 -9z"/>
<path d="M11919 9353 c-13 -16 -12 -17 4 -4 9 7 17 15 17 17 0 8 -8 3 -21 -13z"/>
<path d="M846 8842 c-3 -5 1 -9 9 -9 8 0 12 4 9 9 -3 4 -7 8 -9 8 -2 0 -6 -4
-9 -8z"/>
<path d="M846 8522 c-3 -5 1 -9 9 -9 8 0 12 4 9 9 -3 4 -7 8 -9 8 -2 0 -6 -4
-9 -8z"/>
<path d="M11919 8393 c-13 -16 -12 -17 4 -4 9 7 17 15 17 17 0 8 -8 3 -21 -13z"/>
<path d="M869 8243 c-13 -16 -12 -17 4 -4 16 13 21 21 13 21 -2 0 -10 -8 -17
-17z"/>
<path d="M11936 8118 c3 -5 10 -6 15 -3 13 9 11 12 -6 12 -8 0 -12 -4 -9 -9z"/>
<path d="M11936 7798 c3 -5 10 -6 15 -3 13 9 11 12 -6 12 -8 0 -12 -4 -9 -9z"/>
<path d="M11936 7478 c3 -5 10 -6 15 -3 13 9 11 12 -6 12 -8 0 -12 -4 -9 -9z"/>
<path d="M869 7283 c-13 -16 -12 -17 4 -4 16 13 21 21 13 21 -2 0 -10 -8 -17
-17z"/>
<path d="M11936 7158 c3 -5 10 -6 15 -3 13 9 11 12 -6 12 -8 0 -12 -4 -9 -9z"/>
<path d="M846 6922 c-3 -5 1 -9 9 -9 8 0 12 4 9 9 -3 4 -7 8 -9 8 -2 0 -6 -4
-9 -8z"/>
<path d="M11919 6793 c-13 -16 -12 -17 4 -4 9 7 17 15 17 17 0 8 -8 3 -21 -13z"/>
<path d="M846 6602 c-3 -5 1 -9 9 -9 8 0 12 4 9 9 -3 4 -7 8 -9 8 -2 0 -6 -4
-9 -8z"/>
<path d="M11919 5833 c-13 -16 -12 -17 4 -4 9 7 17 15 17 17 0 8 -8 3 -21 -13z"/>
<path d="M11936 5558 c3 -5 10 -6 15 -3 13 9 11 12 -6 12 -8 0 -12 -4 -9 -9z"/>
<path d="M11936 5238 c3 -5 10 -6 15 -3 13 9 11 12 -6 12 -8 0 -12 -4 -9 -9z"/>
<path d="M846 5002 c-3 -5 1 -9 9 -9 8 0 12 4 9 9 -3 4 -7 8 -9 8 -2 0 -6 -4
-9 -8z"/>
<path d="M11936 4918 c3 -5 10 -6 15 -3 13 9 11 12 -6 12 -8 0 -12 -4 -9 -9z"/>
<path d="M846 4682 c-3 -5 1 -9 9 -9 8 0 12 4 9 9 -3 4 -7 8 -9 8 -2 0 -6 -4
-9 -8z"/>
<path d="M11936 4598 c3 -5 10 -6 15 -3 13 9 11 12 -6 12 -8 0 -12 -4 -9 -9z"/>
<path d="M869 4403 c-13 -16 -12 -17 4 -4 9 7 17 15 17 17 0 8 -8 3 -21 -13z"/>
<path d="M11919 4233 c-13 -16 -12 -17 4 -4 16 13 21 21 13 21 -2 0 -10 -8
-17 -17z"/>
<path d="M869 3443 c-13 -16 -12 -17 4 -4 9 7 17 15 17 17 0 8 -8 3 -21 -13z"/>
<path d="M11919 3273 c-13 -16 -12 -17 4 -4 16 13 21 21 13 21 -2 0 -10 -8
-17 -17z"/>
<path d="M846 3082 c-3 -5 1 -9 9 -9 8 0 12 4 9 9 -3 4 -7 8 -9 8 -2 0 -6 -4
-9 -8z"/>
<path d="M11936 2998 c3 -5 10 -6 15 -3 13 9 11 12 -6 12 -8 0 -12 -4 -9 -9z"/>
<path d="M846 2762 c-3 -5 1 -9 9 -9 8 0 12 4 9 9 -3 4 -7 8 -9 8 -2 0 -6 -4
-9 -8z"/>
<path d="M11936 2678 c3 -5 10 -6 15 -3 13 9 11 12 -6 12 -8 0 -12 -4 -9 -9z"/>
<path d="M970 1161 c0 -6 4 -13 10 -16 6 -3 7 1 4 9 -7 18 -14 21 -14 7z"/>
<path d="M2750 1058 c0 -4 4 -8 9 -8 6 0 12 4 15 8 3 5 -1 9 -9 9 -8 0 -15 -4
-15 -9z"/>
<path d="M3073 1063 c4 -3 1 -13 -6 -22 -11 -14 -10 -14 5 -2 16 12 16 31 1
31 -4 0 -3 -3 0 -7z"/>
<path d="M3390 1058 c0 -4 4 -8 9 -8 6 0 12 4 15 8 3 5 -1 9 -9 9 -8 0 -15 -4
-15 -9z"/>
<path d="M3713 1063 c4 -3 1 -13 -6 -22 -11 -14 -10 -14 5 -2 16 12 16 31 1
31 -4 0 -3 -3 0 -7z"/>
<path d="M6590 1058 c0 -4 4 -8 9 -8 6 0 12 4 15 8 3 5 -1 9 -9 9 -8 0 -15 -4
-15 -9z"/>
<path d="M6913 1063 c4 -3 1 -13 -6 -22 -11 -14 -10 -14 5 -2 16 12 16 31 1
31 -4 0 -3 -3 0 -7z"/>
<path d="M7230 1058 c0 -4 4 -8 9 -8 6 0 12 4 15 8 3 5 -1 9 -9 9 -8 0 -15 -4
-15 -9z"/>
<path d="M7553 1063 c4 -3 1 -13 -6 -22 -11 -14 -10 -14 5 -2 16 12 16 31 1
31 -4 0 -3 -3 0 -7z"/>
<path d="M11714 1062 c4 -3 14 -7 22 -8 9 -1 13 0 10 4 -4 3 -14 7 -22 8 -9 1
-13 0 -10 -4z"/>
<path d="M1410 1039 c0 -5 5 -7 10 -4 6 3 10 8 10 11 0 2 -4 4 -10 4 -5 0 -10
-5 -10 -11z"/>
<path d="M1570 1039 c0 -5 5 -7 10 -4 6 3 10 8 10 11 0 2 -4 4 -10 4 -5 0 -10
-5 -10 -11z"/>
<path d="M1906 1038 c3 -5 10 -6 15 -3 13 9 11 12 -6 12 -8 0 -12 -4 -9 -9z"/>
<path d="M2060 1046 c0 -2 8 -10 18 -17 15 -13 16 -12 3 4 -13 16 -21 21 -21
13z"/>
<path d="M2370 1039 c0 -5 5 -7 10 -4 6 3 10 8 10 11 0 2 -4 4 -10 4 -5 0 -10
-5 -10 -11z"/>
<path d="M2530 1039 c0 -5 5 -7 10 -4 6 3 10 8 10 11 0 2 -4 4 -10 4 -5 0 -10
-5 -10 -11z"/>
<path d="M3026 1038 c3 -5 10 -6 15 -3 13 9 11 12 -6 12 -8 0 -12 -4 -9 -9z"/>
<path d="M3186 1038 c3 -5 10 -6 15 -3 13 9 11 12 -6 12 -8 0 -12 -4 -9 -9z"/>
<path d="M3666 1038 c3 -5 10 -6 15 -3 13 9 11 12 -6 12 -8 0 -12 -4 -9 -9z"/>
<path d="M3820 1046 c0 -2 8 -10 18 -17 15 -13 16 -12 3 4 -13 16 -21 21 -21
13z"/>
<path d="M4146 1038 c3 -5 10 -6 15 -3 13 9 11 12 -6 12 -8 0 -12 -4 -9 -9z"/>
<path d="M4300 1046 c0 -2 8 -10 18 -17 15 -13 16 -12 3 4 -13 16 -21 21 -21
13z"/>
<path d="M4456 1042 c-3 -5 1 -9 9 -9 8 0 12 4 9 9 -3 4 -7 8 -9 8 -2 0 -6 -4
-9 -8z"/>
<path d="M4610 1039 c0 -5 5 -7 10 -4 6 3 10 8 10 11 0 2 -4 4 -10 4 -5 0 -10
-5 -10 -11z"/>
<path d="M4770 1039 c0 -5 5 -7 10 -4 6 3 10 8 10 11 0 2 -4 4 -10 4 -5 0 -10
-5 -10 -11z"/>
<path d="M5106 1038 c3 -5 10 -6 15 -3 13 9 11 12 -6 12 -8 0 -12 -4 -9 -9z"/>
<path d="M5260 1046 c0 -2 8 -10 18 -17 15 -13 16 -12 3 4 -13 16 -21 21 -21
13z"/>
<path d="M5570 1039 c0 -5 5 -7 10 -4 6 3 10 8 10 11 0 2 -4 4 -10 4 -5 0 -10
-5 -10 -11z"/>
<path d="M5730 1039 c0 -5 5 -7 10 -4 6 3 10 8 10 11 0 2 -4 4 -10 4 -5 0 -10
-5 -10 -11z"/>
<path d="M6066 1038 c3 -5 10 -6 15 -3 13 9 11 12 -6 12 -8 0 -12 -4 -9 -9z"/>
<path d="M6220 1046 c0 -2 8 -10 18 -17 15 -13 16 -12 3 4 -13 16 -21 21 -21
13z"/>
<path d="M6375 1039 c-3 -4 2 -6 10 -5 21 3 28 13 10 13 -9 0 -18 -4 -20 -8z"/>
<path d="M6866 1038 c3 -5 10 -6 15 -3 13 9 11 12 -6 12 -8 0 -12 -4 -9 -9z"/>
<path d="M7026 1038 c3 -5 10 -6 15 -3 13 9 11 12 -6 12 -8 0 -12 -4 -9 -9z"/>
<path d="M7506 1038 c3 -5 10 -6 15 -3 13 9 11 12 -6 12 -8 0 -12 -4 -9 -9z"/>
<path d="M7810 1039 c0 -5 5 -7 10 -4 6 3 10 8 10 11 0 2 -4 4 -10 4 -5 0 -10
-5 -10 -11z"/>
<path d="M7970 1039 c0 -5 5 -7 10 -4 6 3 10 8 10 11 0 2 -4 4 -10 4 -5 0 -10
-5 -10 -11z"/>
<path d="M8306 1038 c3 -5 10 -6 15 -3 13 9 11 12 -6 12 -8 0 -12 -4 -9 -9z"/>
<path d="M8460 1046 c0 -2 8 -10 18 -17 15 -13 16 -12 3 4 -13 16 -21 21 -21
13z"/>
<path d="M8770 1039 c0 -5 5 -7 10 -4 6 3 10 8 10 11 0 2 -4 4 -10 4 -5 0 -10
-5 -10 -11z"/>
<path d="M8930 1039 c0 -5 5 -7 10 -4 6 3 10 8 10 11 0 2 -4 4 -10 4 -5 0 -10
-5 -10 -11z"/>
<path d="M9090 1039 c0 -5 5 -7 10 -4 6 3 10 8 10 11 0 2 -4 4 -10 4 -5 0 -10
-5 -10 -11z"/>
<path d="M9250 1039 c0 -5 5 -7 10 -4 6 3 10 8 10 11 0 2 -4 4 -10 4 -5 0 -10
-5 -10 -11z"/>
<path d="M9586 1038 c3 -5 10 -6 15 -3 13 9 11 12 -6 12 -8 0 -12 -4 -9 -9z"/>
<path d="M9740 1046 c0 -2 8 -10 18 -17 15 -13 16 -12 3 4 -13 16 -21 21 -21
13z"/>
<path d="M10050 1039 c0 -5 5 -7 10 -4 6 3 10 8 10 11 0 2 -4 4 -10 4 -5 0
-10 -5 -10 -11z"/>
<path d="M10210 1039 c0 -5 5 -7 10 -4 6 3 10 8 10 11 0 2 -4 4 -10 4 -5 0
-10 -5 -10 -11z"/>
<path d="M10370 1039 c0 -5 5 -7 10 -4 6 3 10 8 10 11 0 2 -4 4 -10 4 -5 0
-10 -5 -10 -11z"/>
<path d="M10530 1039 c0 -5 5 -7 10 -4 6 3 10 8 10 11 0 2 -4 4 -10 4 -5 0
-10 -5 -10 -11z"/>
<path d="M10866 1038 c3 -5 10 -6 15 -3 13 9 11 12 -6 12 -8 0 -12 -4 -9 -9z"/>
<path d="M11020 1046 c0 -2 8 -10 18 -17 15 -13 16 -12 3 4 -13 16 -21 21 -21
13z"/>
<path d="M11330 1039 c0 -5 5 -7 10 -4 6 3 10 8 10 11 0 2 -4 4 -10 4 -5 0
-10 -5 -10 -11z"/>
<path d="M11490 1039 c0 -5 5 -7 10 -4 6 3 10 8 10 11 0 2 -4 4 -10 4 -5 0
-10 -5 -10 -11z"/>
<path d="M11630 1036 c7 -7 13 -7 20 0 6 6 3 10 -10 10 -13 0 -16 -4 -10 -10z"/>
<path d="M2015 1020 c-3 -5 -1 -10 4 -10 6 0 11 5 11 10 0 6 -2 10 -4 10 -3 0
-8 -4 -11 -10z"/>
<path d="M2730 1025 c0 -7 30 -13 34 -7 3 4 -4 9 -15 9 -10 1 -19 0 -19 -2z"/>
<path d="M3133 1015 c0 -8 4 -12 9 -9 5 3 6 10 3 15 -9 13 -12 11 -12 -6z"/>
<path d="M3370 1025 c0 -7 30 -13 34 -7 3 4 -4 9 -15 9 -10 1 -19 0 -19 -2z"/>
<path d="M3773 1015 c0 -8 4 -12 9 -9 5 3 6 10 3 15 -9 13 -12 11 -12 -6z"/>
<path d="M4255 1020 c-3 -5 -1 -10 4 -10 6 0 11 5 11 10 0 6 -2 10 -4 10 -3 0
-8 -4 -11 -10z"/>
<path d="M5215 1020 c-3 -5 -1 -10 4 -10 6 0 11 5 11 10 0 6 -2 10 -4 10 -3 0
-8 -4 -11 -10z"/>
<path d="M6175 1020 c-3 -5 -1 -10 4 -10 6 0 11 5 11 10 0 6 -2 10 -4 10 -3 0
-8 -4 -11 -10z"/>
<path d="M6570 1025 c0 -7 30 -13 34 -7 3 4 -4 9 -15 9 -10 1 -19 0 -19 -2z"/>
<path d="M6973 1015 c0 -8 4 -12 9 -9 5 3 6 10 3 15 -9 13 -12 11 -12 -6z"/>
<path d="M7210 1025 c0 -7 30 -13 34 -7 3 4 -4 9 -15 9 -10 1 -19 0 -19 -2z"/>
<path d="M7613 1015 c0 -8 4 -12 9 -9 5 3 6 10 3 15 -9 13 -12 11 -12 -6z"/>
<path d="M8415 1020 c-3 -5 -1 -10 4 -10 6 0 11 5 11 10 0 6 -2 10 -4 10 -3 0
-8 -4 -11 -10z"/>
<path d="M9695 1020 c-3 -5 -1 -10 4 -10 6 0 11 5 11 10 0 6 -2 10 -4 10 -3 0
-8 -4 -11 -10z"/>
<path d="M10975 1020 c-3 -5 -1 -10 4 -10 6 0 11 5 11 10 0 6 -2 10 -4 10 -3
0 -8 -4 -11 -10z"/>
</g>
</svg>
